<?xml version="1.0" encoding="UTF-8" standalone="no"?>
<!DOCTYPE svg PUBLIC "-//W3C//DTD SVG 1.1//EN"
 "http://www.w3.org/Graphics/SVG/1.1/DTD/svg11.dtd">
<!-- Generated by graphviz version 2.43.0 (0)
 -->
<!-- Title: dependency&#45;cruiser output Pages: 1 -->
<svg width="174pt" height="76pt"
 viewBox="0.00 0.00 174.00 76.00" xmlns="http://www.w3.org/2000/svg" xmlns:xlink="http://www.w3.org/1999/xlink">
<g id="graph0" class="graph" transform="scale(1 1) rotate(0) translate(4 72)">
<title>dependency&#45;cruiser output</title>
<polygon fill="white" stroke="transparent" points="-4,4 -4,-72 170,-72 170,4 -4,4"/>
<g id="clust1" class="cluster">
<title>cluster_src</title>
<path fill="#ffffff" stroke="black" stroke-width="2" d="M20,-8C20,-8 69,-8 69,-8 75,-8 81,-14 81,-20 81,-20 81,-48 81,-48 81,-54 75,-60 69,-60 69,-60 20,-60 20,-60 14,-60 8,-54 8,-48 8,-48 8,-20 8,-20 8,-14 14,-8 20,-8"/>
<text text-anchor="middle" x="44.5" y="-48.8" font-family="Helvetica,sans-Serif" font-weight="bold" font-size="9.00">src</text>
</g>
<!-- child_process -->
<g id="node1" class="node">
<title>child_process</title>
<g id="a_node1"><a xlink:href="https://nodejs.org/api/child_process.html" xlink:title="child_process">
<path fill="#ffffcc" stroke="grey" d="M160,-49C160,-49 95,-49 95,-49 92,-49 89,-46 89,-43 89,-43 89,-37 89,-37 89,-34 92,-31 95,-31 95,-31 160,-31 160,-31 163,-31 166,-34 166,-37 166,-37 166,-43 166,-43 166,-46 163,-49 160,-49"/>
<text text-anchor="middle" x="127.5" y="-37.8" font-family="Helvetica,sans-Serif" font-size="9.00" fill="grey">child_process</text>
</a>
</g>
</g>
<!-- fs -->
<g id="node2" class="node">
<title>fs</title>
<g id="a_node2"><a xlink:href="https://nodejs.org/api/fs.html" xlink:title="fs">
<path fill="#ffffcc" stroke="grey" d="M148.5,-19C148.5,-19 106.5,-19 106.5,-19 103.5,-19 100.5,-16 100.5,-13 100.5,-13 100.5,-7 100.5,-7 100.5,-4 103.5,-1 106.5,-1 106.5,-1 148.5,-1 148.5,-1 151.5,-1 154.5,-4 154.5,-7 154.5,-7 154.5,-13 154.5,-13 154.5,-16 151.5,-19 148.5,-19"/>
<text text-anchor="middle" x="127.5" y="-7.8" font-family="Helvetica,sans-Serif" font-size="9.00" fill="grey">fs</text>
</a>
</g>
</g>
<!-- src/script.cjs -->
<g id="node3" class="node">
<title>src/script.cjs</title>
<g id="a_node3"><a xlink:href="src/script.cjs" xlink:title="script.cjs">
<path fill="#ffffcc" stroke="black" d="M67,-34C67,-34 22,-34 22,-34 19,-34 16,-31 16,-28 16,-28 16,-22 16,-22 16,-19 19,-16 22,-16 22,-16 67,-16 67,-16 70,-16 73,-19 73,-22 73,-22 73,-28 73,-28 73,-31 70,-34 67,-34"/>
<text text-anchor="start" x="24" y="-22.8" font-family="Helvetica,sans-Serif" font-size="9.00">script.cjs</text>
</a>
</g>
</g>
<!-- src/script.cjs&#45;&gt;child_process -->
<g id="edge1" class="edge">
<title>src/script.cjs&#45;&gt;child_process</title>
<path fill="none" stroke="#000000" stroke-dasharray="5,2" stroke-opacity="0.200000" d="M73.38,-30.16C76.52,-30.74 79.78,-31.35 83.07,-31.96"/>
<polygon fill="#000000" fill-opacity="0.200000" stroke="#000000" stroke-opacity="0.200000" points="82.71,-34.03 88.99,-33.05 83.47,-29.9 82.71,-34.03"/>
</g>
<!-- src/script.cjs&#45;&gt;fs -->
<g id="edge2" class="edge">
<title>src/script.cjs&#45;&gt;fs</title>
<path fill="none" stroke="#000000" stroke-dasharray="5,2" stroke-opacity="0.200000" d="M73.38,-19.84C80.1,-18.59 87.35,-17.25 94.25,-15.97"/>
<polygon fill="#000000" fill-opacity="0.200000" stroke="#000000" stroke-opacity="0.200000" points="94.96,-17.98 100.48,-14.82 94.2,-13.85 94.96,-17.98"/>
</g>
</g>
</svg>
